<?xml version="1.0" encoding="UTF-8" standalone="no"?>
<svg width="140px" height="103px" viewBox="0 0 140 103" version="1.1" xmlns="http://www.w3.org/2000/svg" xmlns:xlink="http://www.w3.org/1999/xlink" xmlns:sketch="http://www.bohemiancoding.com/sketch/ns">
    <!-- Generator: Sketch 3.4.4 (17249) - http://www.bohemiancoding.com/sketch -->
    <title>noun_15023</title>
    <desc>Created with Sketch.</desc>
    <defs></defs>
    <g id="Page-1" stroke="none" stroke-width="1" fill="none" fill-rule="evenodd" sketch:type="MSPage">
        <g id="noun_15023" sketch:type="MSLayerGroup" fill="#FFFFFF">
            <g id="Group" sketch:type="MSShapeGroup">
                <path d="M44.9817921,64.1453378 C44.9817921,42.4179054 67.6716238,24.7353108 95.563099,24.7353108 C103.167327,24.7353108 110.379267,26.0534324 116.858287,28.415473 C107.514594,11.9201622 86.008604,0.384162162 60.9636535,0.384162162 C27.3512079,0.384162162 0.10749505,21.1595405 0.10749505,46.7884459 C0.10749505,59.7469595 7.07792079,71.4527703 18.3006832,79.8695405 L13.8570891,101.402108 L33.8832772,88.3392027 C42.0445248,91.4445135 51.2318614,93.1927297 60.9636535,93.1927297 C61.1144257,93.1927297 61.265198,93.1802027 61.4145743,93.1802027 C51.324,85.9771622 44.9817921,75.6298378 44.9817921,64.1453378 L44.9817921,64.1453378 Z" id="Shape"></path>
                <path d="M139.711455,64.1453378 C139.711455,46.3458243 120.235307,31.8604054 96.2834554,31.8604054 C72.331604,31.8604054 52.8428911,46.3458243 52.8428911,64.1453378 C52.8428911,81.9462432 72.331604,96.4302703 96.2834554,96.4302703 C101.74197,96.4302703 107.088802,95.6605541 112.187139,94.1600946 L126.073545,102.511446 L124.018574,88.901527 C134.004446,82.7159595 139.711455,73.7633108 139.711455,64.1453378 L139.711455,64.1453378 Z" id="Shape"></path>
            </g>
        </g>
    </g>
</svg>